<svg width="21" height="29" viewBox="0 0 21 29" fill="none" xmlns="http://www.w3.org/2000/svg">
<path fill-rule="evenodd" clip-rule="evenodd" d="M11.6363 27.1586L10.6234 28.3403L9.61044 27.1586C8.75507 26.1456 7.94471 25.1102 7.17938 24.0522C6.0764 22.5441 5.09722 21.0922 4.24185 19.6966C3.2064 17.9408 2.39605 16.3089 1.81079 14.8007C1.1355 13.0224 0.797852 11.4467 0.797852 10.0736C0.797852 8.27285 1.23679 6.61838 2.11468 5.11023C2.99256 3.62458 4.17432 2.44281 5.65997 1.56493C7.16813 0.687049 8.8226 0.248108 10.6234 0.248108C12.4242 0.248108 14.0786 0.687049 15.5868 1.56493C17.0724 2.44281 18.2542 3.62458 19.1321 5.11023C20.01 6.61838 20.4489 8.27285 20.4489 10.0736C20.4489 11.4467 20.1113 13.0224 19.436 14.8007C18.8507 16.3089 18.0404 17.9408 17.0049 19.6966C16.1495 21.0922 15.1704 22.5441 14.0674 24.0522C13.302 25.1102 12.4917 26.1456 11.6363 27.1586ZM8.15858 12.5385C8.83387 13.2138 9.65548 13.5514 10.6234 13.5514C11.2537 13.5514 11.8389 13.3939 12.3792 13.0787C12.9194 12.7636 13.3471 12.3415 13.6622 11.8125C13.9774 11.2836 14.1349 10.7039 14.1349 10.0737C14.1349 9.44339 13.9774 8.85814 13.6622 8.3179C13.3471 7.77766 12.9194 7.34998 12.3792 7.03484C11.8389 6.7197 11.2537 6.56214 10.6234 6.56214C9.99312 6.56214 9.4135 6.7197 8.88452 7.03484C8.35554 7.34998 7.93348 7.77766 7.61834 8.3179C7.3032 8.85814 7.14563 9.44339 7.14563 10.0737C7.14563 11.0416 7.48328 11.8632 8.15858 12.5385Z" fill="#CB1B1B"/>
</svg>
